<svg width="196" height="52" viewBox="0 0 196 52" fill="none" xmlns="http://www.w3.org/2000/svg">
<g clip-path="url(#clip0_106_7)">
<path d="M9.13639 50.1739V0.275146H0V50.1739H9.13639ZM32.6508 51.2984C43.4739 51.2984 51.275 43.5676 51.275 32.1822C51.275 20.7969 43.4739 13.0661 32.6508 13.0661C21.7574 13.0661 13.9563 20.7969 13.9563 32.1822C13.9563 43.5676 21.7574 51.2984 32.6508 51.2984ZM32.6508 43.5676C26.9581 43.5676 23.2333 39.1399 23.2333 32.1822C23.2333 25.3651 26.9581 20.7969 32.6508 20.7969C38.2732 20.7969 41.998 25.3651 41.998 32.1822C41.998 39.1399 38.2732 43.5676 32.6508 43.5676ZM75.8436 51.1578C84.9799 51.1578 91.7971 43.7081 91.7971 32.1822C91.7971 20.7969 85.1205 13.2066 75.9138 13.2066C71.2754 13.2066 67.6911 14.8231 65.0907 18.056V0.275146H55.9543V50.1739H64.4582V45.6057C66.9883 49.3305 70.7834 51.1578 75.8436 51.1578ZM73.7352 43.2162C68.4642 43.2162 64.7393 38.9994 64.7393 32.1822C64.7393 25.4353 68.4642 21.078 73.8054 21.078C79.1467 21.078 82.5201 25.4353 82.5201 32.1822C82.5201 38.9291 79.0062 43.2162 73.7352 43.2162ZM113.976 51.2984C120.091 51.2984 124.94 49.4008 130 44.2704L124.87 38.648C122.621 40.5455 120.793 41.8106 119.317 42.5134C117.912 43.2162 116.225 43.5676 114.187 43.5676C108.213 43.5676 104.91 40.1239 104.067 34.5717H129.859C129.93 33.5175 130 32.3228 130 30.9875C130 19.7427 123.956 13.0661 113.203 13.0661C102.029 13.0661 95.1412 21.2186 95.1412 32.3931C95.1412 43.8487 102.38 51.2984 113.976 51.2984ZM121.074 28.0357H104.278C105.332 23.1864 108.213 20.2346 112.922 20.2346C117.771 20.2346 120.723 23.1864 121.074 28.0357Z" fill="#030404"/>
<path d="M176.732 18L185.744 18C189.311 18 190.604 18.3713 191.907 19.0685C193.211 19.7658 194.234 20.7889 194.931 22.0926C195.629 23.3963 196 24.6895 196 28.2555V41.7445C196 45.3105 195.629 46.6037 194.931 47.9074C194.234 49.2111 193.211 50.2342 191.907 50.9315C190.604 51.6287 189.311 52 185.744 52L172.256 52C168.689 52 167.396 51.6287 166.093 50.9315C164.789 50.2342 163.766 49.2111 163.069 47.9074C162.371 46.6037 162 45.3105 162 41.7445V33.0409L176.732 18Z" fill="#F34747"/>
<path d="M154.256 0L167.744 0C171.311 0 172.604 0.371302 173.907 1.06853C175.211 1.76576 176.234 2.78891 176.931 4.09262C177.629 5.39632 178 6.68947 178 10.2555V19L163.5 34L154.256 34C150.689 34 149.396 33.6287 148.093 32.9315C146.789 32.2342 145.766 31.2111 145.069 29.9074C144.371 28.6037 144 27.3105 144 23.7445V10.2555C144 6.68947 144.371 5.39632 145.069 4.09262C145.766 2.78891 146.789 1.76576 148.093 1.06853C149.396 0.371302 150.689 0 154.256 0Z" fill="#00DDB3"/>
<path d="M177.999 18L178 23.7445C178 27.3105 177.629 28.6037 176.931 29.9074C176.234 31.2111 175.211 32.2342 173.907 32.9315C172.604 33.6287 171.311 34 167.744 34H162V28.2555C162 24.6895 162.371 23.3963 163.069 22.0926C163.766 20.7889 164.789 19.7658 166.093 19.0685C167.396 18.3713 168.689 18 172.256 18H177.999Z" fill="#333333"/>
</g>
<defs>
<clipPath id="clip0_106_7">
<rect width="196" height="52" fill="white"/>
</clipPath>
</defs>
</svg>
